<svg id="visual" viewBox="0 0 1920 1080" width="1920" height="1080" xmlns="http://www.w3.org/2000/svg" xmlns:xlink="http://www.w3.org/1999/xlink" version="1.1"><g fill="none" stroke="#1d4db4f0" stroke-width="12"><path d="M42.4 24.5L42.4 109.2L-42.4 109.2L-42.4 24.5L-115.7 -17.9L-73.4 -91.3L0 -48.9L73.4 -91.3L115.7 -17.9Z" transform="translate(272 798)"></path><path d="M21.3 12.3L21.3 54.9L-21.3 54.9L-21.3 12.3L-58.2 -9L-36.9 -45.9L0 -24.6L36.9 -45.9L58.2 -9Z" transform="translate(1436 908)"></path><path d="M21.6 12.5L21.6 55.6L-21.6 55.6L-21.6 12.5L-59 -9.1L-37.4 -46.5L0 -24.9L37.4 -46.5L59 -9.1Z" transform="translate(1138 405)"></path><path d="M38.3 22.1L38.3 98.8L-38.3 98.8L-38.3 22.1L-104.7 -16.2L-66.4 -82.6L0 -44.2L66.4 -82.6L104.7 -16.2Z" transform="translate(945 798)"></path><path d="M32.7 18.9L32.7 84.2L-32.7 84.2L-32.7 18.9L-89.2 -13.8L-56.6 -70.4L0 -37.7L56.6 -70.4L89.2 -13.8Z" transform="translate(1583 373)"></path></g></svg>