<svg id="visual" viewBox="0 0 1920 1080" width="1920" height="1080" xmlns="http://www.w3.org/2000/svg" xmlns:xlink="http://www.w3.org/1999/xlink" version="1.1"><g fill="none" stroke="#1d4db4b0" stroke-width="12"><path d="M62.3 36L62.3 160.7L-62.3 160.7L-62.3 36L-170.3 -26.3L-108 -134.3L0 -72L108 -134.3L170.3 -26.3Z" transform="translate(1510 841)"></path><path d="M27.5 15.9L27.5 70.9L-27.5 70.9L-27.5 15.9L-75.2 -11.6L-47.7 -59.3L0 -31.8L47.7 -59.3L75.2 -11.6Z" transform="translate(324 812)"></path><path d="M35.9 20.7L35.9 92.5L-35.9 92.5L-35.9 20.7L-98.1 -15.2L-62.2 -77.3L0 -41.4L62.2 -77.3L98.1 -15.2Z" transform="translate(1302 424)"></path><path d="M27.3 15.7L27.3 70.2L-27.3 70.2L-27.3 15.7L-74.5 -11.5L-47.2 -58.7L0 -31.5L47.2 -58.7L74.5 -11.5Z" transform="translate(953 736)"></path></g></svg>