<svg id="visual" viewBox="0 0 1920 1080" width="1920" height="1080" xmlns="http://www.w3.org/2000/svg" xmlns:xlink="http://www.w3.org/1999/xlink" version="1.1"><path d="M0 930L24.7 935.2C49.3 940.3 98.7 950.7 147.8 927.3C197 904 246 847 295.2 842.8C344.3 838.7 393.7 887.3 443 892C492.3 896.7 541.7 857.3 590.8 858.2C640 859 689 900 738.2 920.8C787.3 941.7 836.7 942.3 886 913C935.3 883.7 984.7 824.3 1034 799.5C1083.3 774.7 1132.7 784.3 1181.8 806.5C1231 828.7 1280 863.3 1329.2 889.2C1378.3 915 1427.7 932 1477 929C1526.3 926 1575.7 903 1624.8 898.7C1674 894.3 1723 908.7 1772.2 918.8C1821.3 929 1870.7 935 1895.3 938L1920 941L1920 1081L1895.3 1081C1870.7 1081 1821.3 1081 1772.2 1081C1723 1081 1674 1081 1624.8 1081C1575.7 1081 1526.3 1081 1477 1081C1427.7 1081 1378.3 1081 1329.2 1081C1280 1081 1231 1081 1181.8 1081C1132.7 1081 1083.3 1081 1034 1081C984.7 1081 935.3 1081 886 1081C836.7 1081 787.3 1081 738.2 1081C689 1081 640 1081 590.8 1081C541.7 1081 492.3 1081 443 1081C393.7 1081 344.3 1081 295.2 1081C246 1081 197 1081 147.8 1081C98.7 1081 49.3 1081 24.7 1081L0 1081Z" fill="#0042a5" stroke-linecap="round" stroke-linejoin="miter"></path></svg>