<svg id="visual" viewBox="0 0 675 900" width="675" height="900" xmlns="http://www.w3.org/2000/svg" xmlns:xlink="http://www.w3.org/1999/xlink" version="1.1"><g fill="none" stroke="#1d4db4b0" stroke-width="12"><path d="M33.7 19.5L33.7 86.9L-33.7 86.9L-33.7 19.5L-92.2 -14.3L-58.4 -72.7L0 -39L58.4 -72.7L92.2 -14.3Z" transform="translate(546 489)"></path><path d="M14.8 8.6L14.8 38.3L-14.8 38.3L-14.8 8.6L-40.5 -6.3L-25.7 -32L0 -17.1L25.7 -32L40.5 -6.3Z" transform="translate(294 604)"></path><path d="M22.9 13.2L22.9 59.1L-22.9 59.1L-22.9 13.2L-62.7 -9.7L-39.7 -49.4L0 -26.5L39.7 -49.4L62.7 -9.7Z" transform="translate(519 196)"></path><path d="M22.4 12.9L22.4 57.7L-22.4 57.7L-22.4 12.9L-61.2 -9.5L-38.8 -48.3L0 -25.9L38.8 -48.3L61.2 -9.5Z" transform="translate(513 758)"></path></g></svg>